<svg xmlns="http://www.w3.org/2000/svg" xml:space="preserve" width="128" height="128" data-id="lg_NesuFKLytWsPtH9fuc" data-version="1"><g data-padding="20"><g fill="#fff"><path d="M96.555 82.934h-7.061V49.427c0-5.19-8.139-13.594-15.783-14.759a76 76 0 0 0-14.406 0c-6.426.777-17.477 9.886-17.477 14.759v33.507h-7.062V49.427c0-9.18 14.018-20.62 23.515-21.767 4.025-.477 12.358-.565 16.242.017 10.592 1.624 22.032 12.605 22.032 21.768Z"/><path d="M94.825 56.453a12.817 12.817 0 0 1 0 25.634M35.72 56.453a12.817 12.817 0 1 0 0 25.634m41.87-7.98h-.53c-5.225 0-9.462-4.325-9.462-10.274 0-.883.106-2.084.283-2.084h18.166c-1.801-12.357-10.028-18.713-19.914-18.713S48.037 49.392 46.254 61.75H64.42c.177 0 .265 1.2.265 2.084 0 5.949-4.237 10.274-9.445 10.274h-.53c-4.06 0-7.555-3.213-9.32-7.309v10.805c0 12.781 9.091 23.126 20.301 23.126s20.285-10.345 20.285-23.126V66.798c0 4.096-4.343 7.31-8.386 7.31M73.618 88.23H59.495v-5.296h14.123Z"/></g><path fill="transparent" stroke="transparent" stroke-width=".773" d="M15.045 20.727H115.5v86.546H15.045z"/></g></svg>